<?xml version="1.0" standalone="no"?>
<!DOCTYPE svg PUBLIC "-//W3C//DTD SVG 20010904//EN"
 "http://www.w3.org/TR/2001/REC-SVG-20010904/DTD/svg10.dtd">
<svg version="1.0" xmlns="http://www.w3.org/2000/svg"
 width="128.000000pt" height="128.000000pt" viewBox="0 0 128.000000 128.000000"
 preserveAspectRatio="xMidYMid meet">
<metadata>
Created by potrace 1.14, written by Peter Selinger 2001-2017
</metadata>
<g transform="translate(0.000000,128.000000) scale(0.100000,-0.100000)"
fill="#000000" stroke="none">
<path d="M681 1178 c-45 -99 -62 -157 -68 -236 -3 -40 -9 -75 -13 -77 -4 -2
-6 6 -5 18 4 50 -28 167 -46 167 -7 0 -72 -193 -81 -242 -2 -14 -18 -6 -77 41
-74 59 -203 138 -238 147 -41 10 -51 -18 -54 -156 -1 -76 6 -136 32 -245 10
-44 19 -84 19 -90 -1 -5 -19 10 -40 35 l-40 45 0 -55 c-1 -50 -2 -53 -15 -36
-13 17 -14 17 -22 -10 -4 -16 -7 -60 -7 -99 1 -94 33 -175 93 -238 43 -44 54
-51 141 -73 178 -47 555 -49 718 -4 18 5 48 6 66 3 26 -4 36 -1 47 14 8 11 32
29 54 41 22 11 50 31 62 44 22 23 22 25 8 90 -7 37 -19 77 -25 89 -7 12 -8 20
-3 17 4 -2 20 -10 35 -18 16 -7 31 -11 34 -7 8 7 -51 101 -83 133 -30 30 -29
35 6 28 49 -10 43 10 -20 65 -76 67 -106 115 -126 199 -42 182 -126 335 -236
431 -67 57 -81 55 -116 -21z"/>
</g>
</svg>
