<svg width="1146" height="634" viewBox="0 0 1146 634" fill="none" xmlns="http://www.w3.org/2000/svg">
<g opacity="0.5">
<path d="M347.799 558.64C269.58 541.385 187.926 533.154 107.846 543.285C71.2058 547.797 35.0662 556.424 0 569.721V633.198H603.854C520.912 606.921 438.685 579.298 355.099 560.223C352.666 559.669 350.233 559.194 347.799 558.64Z" fill="#ECEFFF" fill-opacity="0.63"/>
<path d="M1145.02 0H0V569.713C35.0662 556.416 71.2058 547.71 107.846 543.198C187.926 533.146 269.58 541.299 347.799 558.553C350.233 559.107 352.666 559.661 355.099 560.136C438.685 579.132 520.912 606.834 603.854 633.111H1145.02V0Z" fill="#E7EAFF" fill-opacity="0.63"/>
<path d="M342.361 459.855C344.651 460.488 346.941 461.2 349.159 461.833C489.567 503.386 627.327 567.497 773.889 601.61C898.553 630.579 1024 624.722 1145.02 593.537V0H0V455.027C37.4278 441.096 76.2153 433.102 115.289 430.57C192.077 425.346 268.865 438.643 342.361 459.855Z" fill="#E2E4FF" fill-opacity="0.63"/>
<path d="M0 0V339.865C39.7894 325.302 81.2247 318.257 122.66 317.941C196.228 317.308 268.077 335.908 336.85 361.077C338.997 361.868 341.072 362.66 343.219 363.451C474.61 412.524 604.927 479.088 745.693 515.496C879.302 550.084 1014.99 542.723 1144.95 505.523V0H0Z" fill="#DDDEFF" fill-opacity="0.63"/>
<path d="M130.103 205.312C200.378 210.061 267.433 233.172 331.411 262.378C333.415 263.249 335.347 264.199 337.351 265.069C459.725 321.74 582.6 390.52 717.569 429.461C859.837 470.461 1006.26 461.754 1145.02 417.747V0H0V224.149C42.2226 208.636 86.3058 202.383 130.103 205.312Z" fill="#D9D8FF" fill-opacity="0.63"/>
<path d="M1145.02 0H0V107.88C44.5842 91.3377 91.3868 86.1139 137.545 92.6833C204.529 102.26 266.718 130.437 325.972 163.601C327.833 164.63 329.622 165.658 331.483 166.687C444.84 230.877 560.272 301.953 689.516 343.348C840.157 391.628 997.812 382.13 1145.09 330.209V0H1145.02Z" fill="#E2DAFF" fill-opacity="0.63"/>
<path d="M325.542 68.3054C429.881 140.093 537.871 213.148 661.318 257.234C810.6 310.58 969.972 305.356 1117.82 253.039C1126.98 249.794 1136 246.39 1145.09 242.829V0H206.173C246.249 16.8587 283.963 40.0493 320.46 64.902C322.178 66.0101 323.824 67.1973 325.542 68.3054Z" fill="#E9DDFF" fill-opacity="0.63"/>
<path d="M1145.02 0H356.386C440.902 67.9097 530.643 130.2 633.194 171.12C770.453 225.891 919.448 230.244 1059 187.82C1088.2 178.955 1117.04 167.875 1145.09 154.815V0H1145.02Z" fill="#F0DFFF" fill-opacity="0.63"/>
<path d="M1000.1 122.522C1033.88 114.133 1067.09 102.498 1099.29 87.8552C1114.82 80.811 1130.06 72.9752 1145.02 64.5063V0H460.442C505.456 33.0051 553.26 61.8944 605.072 85.0058C730.237 140.964 868.927 155.211 1000.1 122.522Z" fill="#F7E2FF" fill-opacity="0.63"/>
<path d="M941.277 57.3037C995.164 47.331 1047.84 27.9395 1096.43 0H579.022C691.878 56.1957 819.189 79.9403 941.277 57.3037Z" fill="#FCE4FF" fill-opacity="0.63"/>
</g>
</svg>
