<svg width="1440" height="790" viewBox="0 0 1440 790" fill="none" xmlns="http://www.w3.org/2000/svg">
<path d="M437.096 696.271C338.795 674.766 236.176 664.506 135.536 677.133C89.4878 682.756 44.0694 693.509 0 710.082V789.198H758.893C654.655 756.447 551.317 722.018 446.27 698.244C443.212 697.554 440.154 696.962 437.096 696.271Z" fill="#ECEFFF"/>
<path d="M1439 0H0V710.072C44.0694 693.499 89.4878 682.648 135.536 677.025C236.176 664.497 338.795 674.658 437.096 696.163C440.154 696.854 443.212 697.544 446.27 698.136C551.317 721.812 654.655 756.339 758.893 789.09H1439V0Z" fill="#E7EAFF"/>
<path d="M430.261 573.148C433.139 573.937 436.017 574.825 438.805 575.614C615.262 627.405 788.392 707.31 972.584 749.828C1129.26 785.933 1286.92 778.633 1439 739.766V0H0V567.131C47.0373 549.769 95.7835 539.805 144.889 536.648C241.392 530.137 337.895 546.71 430.261 573.148Z" fill="#E2E4FF"/>
<path d="M0 0V423.597C50.0052 405.446 102.079 396.666 154.153 396.271C246.609 395.482 336.906 418.665 423.336 450.035C426.034 451.021 428.642 452.008 431.34 452.994C596.465 514.156 760.242 597.12 937.149 642.498C1105.06 685.608 1275.58 676.433 1438.91 630.068V0H0Z" fill="#DDDEFF"/>
<path d="M163.506 255.894C251.825 261.813 336.096 290.619 416.501 327.02C419.019 328.105 421.447 329.289 423.965 330.374C577.759 401.006 732.181 486.732 901.803 535.267C1080.6 586.367 1264.61 575.516 1439 520.667V0H0V279.373C53.0631 260.038 108.465 252.244 163.506 255.894Z" fill="#D9D8FF"/>
<path d="M1439 0H0V134.458C56.0311 113.84 114.85 107.33 172.86 115.517C257.041 127.454 335.197 162.573 409.665 203.907C412.004 205.189 414.252 206.471 416.591 207.754C559.052 287.758 704.121 376.344 866.548 427.938C1055.87 488.113 1254 476.275 1439.09 411.562V0H1439Z" fill="#E2DAFF"/>
<path d="M409.124 85.1337C540.253 174.608 675.968 265.661 831.111 320.608C1018.72 387.097 1219.01 380.586 1404.82 315.38C1416.33 311.335 1427.67 307.093 1439.09 302.654V0H259.108C309.473 21.0121 356.87 49.9162 402.738 80.8918C404.897 82.2729 406.965 83.7526 409.124 85.1337Z" fill="#E9DDFF"/>
<path d="M1439 0H447.887C554.103 84.6405 666.885 162.277 795.765 213.278C968.265 281.543 1155.52 286.969 1330.89 234.093C1367.59 223.044 1403.83 209.234 1439.09 192.957V0H1439Z" fill="#F0DFFF"/>
<path d="M1256.88 152.708C1299.33 142.251 1341.06 127.75 1381.53 109.5C1401.05 100.72 1420.21 90.954 1439 80.3986V0H578.66C635.231 41.1365 695.309 77.1432 760.424 105.949C917.724 175.693 1092.02 193.45 1256.88 152.708Z" fill="#F7E2FF"/>
<path d="M1182.95 71.4216C1250.67 58.9918 1316.87 34.8229 1377.93 0H727.685C869.516 70.0405 1029.52 99.6351 1182.95 71.4216Z" fill="#FCE4FF"/>
</svg>
