<svg width="166" height="36" viewBox="0 0 166 36" fill="none" xmlns="http://www.w3.org/2000/svg">
<path d="M15.3778 26.36C13.6578 26.36 12.1978 25.98 10.9978 25.22C9.79775 24.46 8.88175 23.404 8.24975 22.052C7.62575 20.7 7.31375 19.136 7.31375 17.36C7.31375 15.584 7.62575 14.02 8.24975 12.668C8.88175 11.316 9.79775 10.26 10.9978 9.5C12.1978 8.74 13.6578 8.36 15.3778 8.36C17.3778 8.36 19.0218 8.868 20.3098 9.884C21.6058 10.9 22.4978 12.268 22.9858 13.988L20.8138 14.564C20.4618 13.276 19.8338 12.26 18.9297 11.516C18.0258 10.772 16.8418 10.4 15.3778 10.4C14.0898 10.4 13.0178 10.692 12.1618 11.276C11.3058 11.86 10.6618 12.676 10.2298 13.724C9.79775 14.764 9.57775 15.976 9.56975 17.36C9.56175 18.736 9.77375 19.948 10.2058 20.996C10.6378 22.036 11.2858 22.852 12.1498 23.444C13.0138 24.028 14.0898 24.32 15.3778 24.32C16.8418 24.32 18.0258 23.948 18.9297 23.204C19.8338 22.452 20.4618 21.436 20.8138 20.156L22.9858 20.732C22.4978 22.444 21.6058 23.812 20.3098 24.836C19.0218 25.852 17.3778 26.36 15.3778 26.36ZM49.6409 26V8.72H51.8009L60.8129 22.22V8.72H62.9729V26H60.8129L51.8009 12.488V26H49.6409ZM66.3284 26V8.72H68.4884L77.5004 22.22V8.72H79.6604V26H77.5004L68.4884 12.488V26H66.3284ZM90.1199 26.36C88.3999 26.36 86.9399 25.98 85.7399 25.22C84.5399 24.46 83.6239 23.404 82.9919 22.052C82.3679 20.7 82.0559 19.136 82.0559 17.36C82.0559 15.584 82.3679 14.02 82.9919 12.668C83.6239 11.316 84.5399 10.26 85.7399 9.5C86.9399 8.74 88.3999 8.36 90.1199 8.36C91.8479 8.36 93.3119 8.74 94.5119 9.5C95.7119 10.26 96.6239 11.316 97.2479 12.668C97.8719 14.02 98.1839 15.584 98.1839 17.36C98.1839 19.136 97.8719 20.7 97.2479 22.052C96.6239 23.404 95.7119 24.46 94.5119 25.22C93.3119 25.98 91.8479 26.36 90.1199 26.36ZM90.1199 24.32C91.4079 24.328 92.4799 24.04 93.3359 23.456C94.1999 22.864 94.8439 22.044 95.2679 20.996C95.6999 19.948 95.9159 18.736 95.9159 17.36C95.9159 15.976 95.6999 14.764 95.2679 13.724C94.8439 12.684 94.1999 11.872 93.3359 11.288C92.4799 10.704 91.4079 10.408 90.1199 10.4C88.8319 10.392 87.7599 10.68 86.9039 11.264C86.0559 11.848 85.4159 12.664 84.9839 13.712C84.5519 14.76 84.3319 15.976 84.3239 17.36C84.3159 18.736 84.5279 19.944 84.9599 20.984C85.3919 22.024 86.0359 22.84 86.8919 23.432C87.7559 24.016 88.8319 24.312 90.1199 24.32ZM100.594 26V8.72H107.422C107.59 8.72 107.79 8.728 108.022 8.744C108.254 8.752 108.478 8.776 108.694 8.816C109.63 8.96 110.414 9.28 111.046 9.776C111.686 10.272 112.166 10.9 112.486 11.66C112.806 12.412 112.966 13.248 112.966 14.168C112.966 15.504 112.618 16.664 111.922 17.648C111.226 18.624 110.206 19.236 108.862 19.484L108.046 19.616H102.73V26H100.594ZM110.878 26L107.47 18.968L109.582 18.32L113.326 26H110.878ZM102.73 17.588H107.35C107.502 17.588 107.674 17.58 107.866 17.564C108.066 17.548 108.254 17.52 108.43 17.48C108.982 17.352 109.43 17.12 109.774 16.784C110.126 16.44 110.382 16.04 110.542 15.584C110.702 15.12 110.782 14.648 110.782 14.168C110.782 13.688 110.702 13.22 110.542 12.764C110.382 12.3 110.126 11.896 109.774 11.552C109.43 11.208 108.982 10.976 108.43 10.856C108.254 10.808 108.066 10.78 107.866 10.772C107.674 10.756 107.502 10.748 107.35 10.748H102.73V17.588ZM121.014 26V8.72H123.15V23.972H131.166V26H121.014ZM136.88 26.36C135.912 26.36 135.1 26.184 134.444 25.832C133.796 25.472 133.304 25 132.968 24.416C132.64 23.832 132.476 23.192 132.476 22.496C132.476 21.816 132.604 21.228 132.86 20.732C133.124 20.228 133.492 19.812 133.964 19.484C134.436 19.148 135 18.884 135.656 18.692C136.272 18.524 136.96 18.38 137.72 18.26C138.488 18.132 139.264 18.016 140.048 17.912C140.832 17.808 141.564 17.708 142.244 17.612L141.476 18.056C141.5 16.904 141.268 16.052 140.78 15.5C140.3 14.948 139.468 14.672 138.284 14.672C137.5 14.672 136.812 14.852 136.22 15.212C135.636 15.564 135.224 16.14 134.984 16.94L132.956 16.328C133.268 15.192 133.872 14.3 134.768 13.652C135.664 13.004 136.844 12.68 138.308 12.68C139.484 12.68 140.492 12.892 141.332 13.316C142.18 13.732 142.788 14.364 143.156 15.212C143.34 15.612 143.456 16.048 143.504 16.52C143.552 16.984 143.576 17.472 143.576 17.984V26H141.68V22.892L142.124 23.18C141.636 24.228 140.952 25.02 140.072 25.556C139.2 26.092 138.136 26.36 136.88 26.36ZM137.204 24.572C137.972 24.572 138.636 24.436 139.196 24.164C139.764 23.884 140.22 23.52 140.564 23.072C140.908 22.616 141.132 22.12 141.236 21.584C141.356 21.184 141.42 20.74 141.428 20.252C141.444 19.756 141.452 19.376 141.452 19.112L142.196 19.436C141.5 19.532 140.816 19.624 140.144 19.712C139.472 19.8 138.836 19.896 138.236 20C137.636 20.096 137.096 20.212 136.616 20.348C136.264 20.46 135.932 20.604 135.62 20.78C135.316 20.956 135.068 21.184 134.876 21.464C134.692 21.736 134.6 22.076 134.6 22.484C134.6 22.836 134.688 23.172 134.864 23.492C135.048 23.812 135.328 24.072 135.704 24.272C136.088 24.472 136.588 24.572 137.204 24.572ZM152.648 26.36C151.432 26.36 150.408 26.06 149.576 25.46C148.744 24.852 148.112 24.032 147.68 23C147.256 21.96 147.044 20.796 147.044 19.508C147.044 18.204 147.256 17.036 147.68 16.004C148.112 14.972 148.744 14.16 149.576 13.568C150.416 12.976 151.444 12.68 152.66 12.68C153.86 12.68 154.892 12.98 155.756 13.58C156.628 14.172 157.296 14.984 157.76 16.016C158.224 17.048 158.456 18.212 158.456 19.508C158.456 20.804 158.224 21.968 157.76 23C157.296 24.032 156.628 24.852 155.756 25.46C154.892 26.06 153.856 26.36 152.648 26.36ZM146.684 26V8.72H148.832V16.46H148.592V26H146.684ZM152.384 24.404C153.24 24.404 153.948 24.188 154.508 23.756C155.068 23.324 155.488 22.74 155.768 22.004C156.048 21.26 156.188 20.428 156.188 19.508C156.188 18.596 156.048 17.772 155.768 17.036C155.496 16.3 155.072 15.716 154.496 15.284C153.928 14.852 153.204 14.636 152.324 14.636C151.484 14.636 150.788 14.844 150.236 15.26C149.684 15.668 149.272 16.24 149 16.976C148.728 17.704 148.592 18.548 148.592 19.508C148.592 20.452 148.724 21.296 148.988 22.04C149.26 22.776 149.676 23.356 150.236 23.78C150.796 24.196 151.512 24.404 152.384 24.404Z" fill="white"/>
<g clip-path="url(#clip0_221_128803)">
<path fill-rule="evenodd" clip-rule="evenodd" d="M33.8752 8.0182C34.1082 7.97078 34.3505 8.01687 34.5501 8.14663C34.7497 8.27639 34.8909 8.47951 34.9435 8.71255C34.9961 8.94558 34.9558 9.19004 34.8314 9.39362C34.7069 9.59722 34.5081 9.74379 34.2775 9.80199C32.943 10.1089 31.7213 10.7871 30.7523 11.759C29.7833 12.7309 29.106 13.9573 28.798 15.2978C28.744 15.5344 28.5988 15.7397 28.3942 15.8686C28.1896 15.9975 27.9424 16.0395 27.7071 15.9853C27.4717 15.9311 27.2674 15.7851 27.1391 15.5795C27.0108 15.3739 26.9691 15.1255 27.023 14.889C27.4078 13.2126 28.2547 11.679 29.4665 10.4639C30.6783 9.24871 32.2062 8.40114 33.8752 8.0182ZM27.0358 19.041C26.9882 18.8078 27.0329 18.5652 27.1604 18.3646C27.288 18.164 27.4883 18.0213 27.7189 17.9668C27.9495 17.9123 28.1921 17.9502 28.3953 18.0725C28.5985 18.1949 28.7462 18.392 28.8071 18.6221C29.4351 21.3069 30.7674 23.4451 33.438 24.0809C33.5555 24.1074 33.6401 24.468 34.0292 24.468C34.1275 24.5379 33.6573 24.468 34.292 24.468C33.6573 24.4986 34.0584 24.8088 34.4832 24.8088C34.1701 24.7718 33.8796 24.9171 34.4832 25.0735C33.8796 25.0735 34.0289 25.1197 34.292 25.4044C34.0289 25.2031 34.5861 25.6712 34.4832 25.7342C34.3804 25.7972 34.2661 25.8389 34.147 25.8572C34.0279 25.8755 33.9065 25.8698 33.7896 25.8404C32.1478 25.4466 30.647 24.6025 29.4546 23.4019C28.2621 22.2015 27.4247 20.6917 27.0358 19.041ZM41.8869 10.0508C41.9769 10.1299 42.0506 10.226 42.1036 10.3337C42.1567 10.4414 42.1881 10.5586 42.1961 10.6785C42.204 10.7984 42.1885 10.9187 42.1501 11.0325C42.1119 11.1464 42.0517 11.2515 41.973 11.342C41.8943 11.4324 41.7986 11.5064 41.6914 11.5597C41.5842 11.613 41.4677 11.6446 41.3484 11.6526C41.2291 11.6606 41.1094 11.645 40.9961 11.6065C40.8829 11.568 40.7781 11.5075 40.6881 11.4284C39.8094 10.6544 38.7578 10.1049 37.6225 9.82668C37.5041 9.80056 37.3921 9.75091 37.2931 9.68068C37.194 9.61046 37.1099 9.52104 37.0457 9.4177C36.9815 9.31435 36.9384 9.19916 36.9191 9.07888C36.8998 8.9586 36.9046 8.83566 36.9333 8.71726C36.9619 8.59887 37.0137 8.48742 37.0858 8.38945C37.1578 8.29147 37.2487 8.20895 37.3529 8.14673C37.4571 8.08451 37.5727 8.04384 37.6927 8.02711C37.8128 8.01038 37.935 8.01792 38.0522 8.0493C39.4721 8.3966 40.7876 9.08321 41.8869 10.0508Z" fill="url(#paint0_linear_221_128803)"/>
<path fill-rule="evenodd" clip-rule="evenodd" d="M33.8752 8.15055C34.1082 8.10313 34.3505 8.14923 34.5501 8.27899C34.7497 8.40875 34.891 8.61186 34.9435 8.8449C34.9961 9.07794 34.9558 9.32239 34.8314 9.52598C34.7069 9.72958 34.5081 9.87614 34.2775 9.93434C32.943 10.2413 31.7213 10.9195 30.7523 11.8913C29.7833 12.8633 29.106 14.0896 28.798 15.4302C28.744 15.6667 28.5988 15.8721 28.3942 16.001C28.1896 16.1299 27.9424 16.1719 27.7071 16.1176C27.4717 16.0634 27.2674 15.9174 27.1391 15.7118C27.0108 15.5063 26.9691 15.2579 27.023 15.0213C27.4078 13.3449 28.2547 11.8113 29.4665 10.5962C30.6783 9.38106 32.2062 8.53349 33.8752 8.15055ZM27.0358 19.1734C26.9882 18.9402 27.0329 18.6976 27.1604 18.497C27.288 18.2964 27.4883 18.1537 27.7189 18.0991C27.9495 18.0446 28.1921 18.0825 28.3953 18.2049C28.5985 18.3273 28.7462 18.5244 28.8071 18.7544C29.4351 21.4393 31.5386 23.5569 34.2092 24.1927C34.3267 24.2192 34.4379 24.2688 34.5361 24.3388C34.6344 24.4089 34.7179 24.4977 34.7817 24.6004C34.8456 24.7029 34.8885 24.8173 34.9081 24.9368C34.9276 25.0562 34.9234 25.1784 34.8956 25.2961C34.8679 25.4139 34.8171 25.525 34.7463 25.6229C34.6755 25.7209 34.5861 25.8036 34.4832 25.8666C34.3804 25.9296 34.2661 25.9713 34.147 25.9895C34.0279 26.0078 33.9065 26.0021 33.7896 25.9727C32.1478 25.579 30.647 24.7348 29.4546 23.5343C28.2621 22.3338 27.4247 20.8241 27.0358 19.1734ZM38.1751 25.9299C37.9413 25.9905 37.6931 25.9553 37.4851 25.832C37.2771 25.7088 37.1263 25.5075 37.0659 25.2726C37.0056 25.0375 37.0406 24.7882 37.1632 24.5791C37.2859 24.3701 37.4861 24.2185 37.7199 24.1579C38.7549 23.8884 39.7182 23.3934 40.5414 22.7079C41.3647 22.0223 42.0276 21.163 42.4834 20.1911C42.9392 19.2191 43.1765 18.1582 43.1785 17.0838C43.1804 16.0093 42.9471 14.9476 42.495 13.9739C42.4443 13.8651 42.4155 13.7473 42.4101 13.6272C42.4047 13.5072 42.4228 13.3873 42.4636 13.2743C42.5043 13.1613 42.5668 13.0575 42.6475 12.9688C42.7282 12.8801 42.8254 12.8082 42.9337 12.7573C43.0419 12.7063 43.1591 12.6773 43.2787 12.6719C43.3981 12.6665 43.5174 12.6848 43.6299 12.7258C43.7422 12.7667 43.8455 12.8295 43.9338 12.9106C44.0221 12.9916 44.0936 13.0894 44.1443 13.1982C44.71 14.4153 45.0022 15.7428 45 17.0862C44.9978 18.4296 44.7012 19.756 44.1315 20.9713C43.5617 22.1865 42.7327 23.2608 41.7032 24.1178C40.6738 24.9748 39.4692 25.5934 38.1751 25.9299ZM41.8869 10.1831C41.9769 10.2623 42.0506 10.3584 42.1036 10.4661C42.1567 10.5738 42.1881 10.6909 42.1961 10.8108C42.204 10.9307 42.1885 11.051 42.1501 11.1649C42.1119 11.2787 42.0517 11.3839 41.973 11.4743C41.8943 11.5648 41.7986 11.6388 41.6914 11.6921C41.5842 11.7454 41.4677 11.7769 41.3484 11.785C41.2291 11.793 41.1094 11.7773 40.9961 11.7389C40.8829 11.7004 40.7781 11.6399 40.6881 11.5608C39.8094 10.7867 38.7578 10.2372 37.6226 9.95904C37.5041 9.93291 37.3921 9.88326 37.2931 9.81304C37.194 9.74281 37.1099 9.65339 37.0457 9.55005C36.9815 9.44671 36.9384 9.33151 36.9191 9.21124C36.8998 9.09096 36.9046 8.96801 36.9332 8.84962C36.9619 8.73123 37.0137 8.61977 37.0858 8.5218C37.1578 8.42383 37.2487 8.34131 37.3529 8.27908C37.4571 8.21686 37.5727 8.17619 37.6927 8.15946C37.8128 8.14273 37.935 8.15028 38.0522 8.18166C39.4721 8.52896 40.7876 9.21556 41.8869 10.1831Z" fill="url(#paint1_linear_221_128803)"/>
</g>
<defs>
<linearGradient id="paint0_linear_221_128803" x1="31.073" y1="10.4485" x2="36.1156" y2="17.7597" gradientUnits="userSpaceOnUse">
<stop stop-color="white"/>
<stop offset="1" stop-color="#6262E0"/>
</linearGradient>
<linearGradient id="paint1_linear_221_128803" x1="28.159" y1="7.92369" x2="42.8158" y2="27.5212" gradientUnits="userSpaceOnUse">
<stop offset="0.0131289" stop-color="#E4E4E5"/>
<stop offset="0.0132289" stop-color="white"/>
<stop offset="0.216107" stop-color="#9797DD"/>
<stop offset="1" stop-color="#5050E0"/>
</linearGradient>
<clipPath id="clip0_221_128803">
<rect width="18" height="18" fill="white" transform="translate(27 8)"/>
</clipPath>
</defs>
</svg>
