<svg width="106" height="106" viewBox="0 0 106 106" fill="none" xmlns="http://www.w3.org/2000/svg">
<path d="M46.2715 4.47187C36.4789 6.12812 28.1977 12.7738 24.6367 21.8832C22.1316 28.2805 21.9867 35.1539 24.2434 41.5512C25.9203 46.2508 29.0879 50.8262 32.8145 53.8488C33.5598 54.4492 34.1602 54.9875 34.1602 55.0496C34.1602 55.1117 33.2492 55.5879 32.1313 56.1055C16.6246 63.2687 6.00391 79.6242 6.00391 96.373C6.00391 99.1266 6.39727 100.12 7.82578 101.135C8.65391 101.694 8.88164 101.756 10.4551 101.756C12.0285 101.756 12.2563 101.714 13.0637 101.135C14.5543 100.079 14.7406 99.5613 15.0305 95.6277C15.1754 93.723 15.5066 91.1973 15.7344 90.0172C18.7777 74.9867 30.9719 63.4551 46.2301 61.1984C49.025 60.7637 54.0766 60.7637 56.8922 61.1984C61.157 61.8195 65.7117 63.4137 69.6246 65.6703C71.343 66.6641 71.6742 66.7676 72.9785 66.8297C74.3035 66.8918 74.5105 66.8504 75.4008 66.2707C77.9266 64.6559 78.3406 61.0742 76.2289 59.1695C75.2145 58.2586 72.668 56.8715 69.8523 55.6914L67.5543 54.7391L68.3617 54.1387C69.7281 53.1242 72.9164 49.6668 74.0137 48.0312C76.1047 44.8844 77.5953 41.3027 78.4027 37.4727C78.9617 34.7398 78.9203 29.3363 78.2992 26.5207C77.0363 20.8273 74.6555 16.4797 70.5977 12.4012C66.1879 7.9707 60.598 5.15507 54.5941 4.36836C52.4203 4.05781 48.3004 4.11992 46.2715 4.47187ZM54.2422 13.4984C60.2461 14.4922 65.9602 19.0883 68.2996 24.8023C69.5004 27.7422 69.666 28.6117 69.6453 32.2969C69.6453 35.423 69.6039 35.8785 69.0656 37.5762C65.6082 48.818 53.2484 54.4285 42.7313 49.5012C40.5574 48.466 39.3773 47.6586 37.5969 45.9816C35.0711 43.5387 33.1871 40.3711 32.2762 36.9551C31.6137 34.5121 31.593 29.9781 32.2555 27.5559C33.7875 21.9246 37.3898 17.5355 42.5449 15.0926C46.4164 13.25 49.8945 12.7738 54.2422 13.4984Z" fill="black"/>
<path d="M80.1004 66.5191C79.6035 66.7883 78.9203 67.4094 78.5684 67.8855L77.9473 68.7758L77.8852 74.0344L77.823 79.293H72.8129C67.9477 79.293 67.7613 79.3137 66.7262 79.7898C65.2562 80.4937 64.5316 81.591 64.4281 83.3301C64.3246 84.9035 64.6352 85.918 65.484 86.891C66.5812 88.1332 66.9125 88.1953 72.6473 88.1953H77.823L77.8852 93.4332L77.9473 98.6918L78.527 99.5613C80.266 102.191 84.8 101.963 86.2699 99.1887C86.7254 98.2984 86.7461 98.1121 86.7461 93.2469V88.216L92.1082 88.1539L97.4703 88.0918L98.2777 87.45C99.5406 86.4562 100.038 85.2762 99.9547 83.4957C99.8926 82.2535 99.7891 81.8601 99.2715 81.1148C98.8988 80.5973 98.257 80.0383 97.7188 79.7484C96.8492 79.3137 96.5801 79.293 91.777 79.293H86.7668L86.7047 74.0344L86.6426 68.7758L86.0008 67.8648C84.6758 66.0637 82.1086 65.4633 80.1004 66.5191Z" fill="black"/>
</svg>
