<svg width="12" height="12" viewBox="0 0 12 12" fill="none" xmlns="http://www.w3.org/2000/svg">
<path d="M5.14125 0.924C5.53711 0.700992 6.00419 0.640711 6.4437 0.755907C6.8832 0.871102 7.26067 1.15274 7.49625 1.54125L7.4985 1.54425L11.7337 8.6145L11.7397 8.625C11.8924 8.88964 11.9731 9.18963 11.9739 9.49514C11.9747 9.80065 11.8955 10.101 11.7442 10.3665C11.5929 10.6319 11.3748 10.8531 11.1115 11.0081C10.8482 11.1631 10.549 11.2465 10.2435 11.25H1.7565C1.45101 11.2465 1.15175 11.1631 0.888481 11.0081C0.62521 10.8531 0.407088 10.6319 0.255798 10.3665C0.104508 10.101 0.0253174 9.80065 0.0260982 9.49514C0.0268791 9.18963 0.107604 8.88964 0.260249 8.625L0.266249 8.6145L4.5015 1.545L5.145 1.9305L4.50375 1.542C4.65975 1.28475 4.87875 1.07175 5.14125 0.92475V0.924ZM5.787 2.3175L1.557 9.37875C1.53623 9.41647 1.52554 9.4589 1.52595 9.50196C1.52636 9.54502 1.53787 9.58724 1.55935 9.62456C1.58083 9.66187 1.61157 9.69302 1.6486 9.71499C1.68563 9.73696 1.7277 9.74902 1.77075 9.75H10.2292C10.2722 9.7489 10.3142 9.73675 10.3511 9.71472C10.3881 9.6927 10.4187 9.66154 10.4401 9.62424C10.4615 9.58695 10.4729 9.54477 10.4733 9.50178C10.4737 9.45878 10.463 9.41641 10.4422 9.37875L6.213 2.3175C6.19068 2.28104 6.15937 2.25092 6.12208 2.23003C6.08478 2.20913 6.04275 2.19816 6 2.19816C5.95725 2.19816 5.91522 2.20913 5.87792 2.23003C5.84063 2.25092 5.80932 2.28104 5.787 2.3175ZM6 3.75C6.19891 3.75 6.38968 3.82902 6.53033 3.96967C6.67098 4.11032 6.75 4.30109 6.75 4.5V6.50025C6.75 6.69916 6.67098 6.88993 6.53033 7.03058C6.38968 7.17123 6.19891 7.25025 6 7.25025C5.80109 7.25025 5.61032 7.17123 5.46967 7.03058C5.32902 6.88993 5.25 6.69916 5.25 6.50025V4.5C5.25 4.30109 5.32902 4.11032 5.46967 3.96967C5.61032 3.82902 5.80109 3.75 6 3.75ZM6 7.74975C5.80109 7.74975 5.61032 7.82877 5.46967 7.96942C5.32902 8.11007 5.25 8.30084 5.25 8.49975C5.25 8.69866 5.32902 8.88943 5.46967 9.03008C5.61032 9.17073 5.80109 9.24975 6 9.24975H6.00525C6.20416 9.24975 6.39493 9.17073 6.53558 9.03008C6.67623 8.88943 6.75525 8.69866 6.75525 8.49975C6.75525 8.30084 6.67623 8.11007 6.53558 7.96942C6.39493 7.82877 6.20416 7.74975 6.00525 7.74975H6Z" fill="#F45725"/>
</svg>
