<svg width="20" height="20" viewBox="0 0 20 20" fill="none" xmlns="http://www.w3.org/2000/svg">
<path fill-rule="evenodd" clip-rule="evenodd" d="M1.66669 2.5C1.66669 2.03976 2.03978 1.66666 2.50002 1.66666H8.33335C8.79359 1.66666 9.16669 2.03976 9.16669 2.5V8.33333C9.16669 8.79357 8.79359 9.16666 8.33335 9.16666H2.50002C2.03978 9.16666 1.66669 8.79357 1.66669 8.33333V2.5ZM3.33335 3.33333V7.5H7.50002V3.33333H3.33335ZM10.8334 2.5C10.8334 2.03976 11.2064 1.66666 11.6667 1.66666H17.5C17.9603 1.66666 18.3334 2.03976 18.3334 2.5V8.33333C18.3334 8.79357 17.9603 9.16666 17.5 9.16666H11.6667C11.2064 9.16666 10.8334 8.79357 10.8334 8.33333V2.5ZM12.5 3.33333V7.5H16.6667V3.33333H12.5ZM1.66669 11.6667C1.66669 11.2064 2.03978 10.8333 2.50002 10.8333H8.33335C8.79359 10.8333 9.16669 11.2064 9.16669 11.6667V17.5C9.16669 17.9602 8.79359 18.3333 8.33335 18.3333H2.50002C2.03978 18.3333 1.66669 17.9602 1.66669 17.5V11.6667ZM3.33335 12.5V16.6667H7.50002V12.5H3.33335ZM10.8334 11.6667C10.8334 11.2064 11.2064 10.8333 11.6667 10.8333H17.5C17.9603 10.8333 18.3334 11.2064 18.3334 11.6667V17.5C18.3334 17.9602 17.9603 18.3333 17.5 18.3333H11.6667C11.2064 18.3333 10.8334 17.9602 10.8334 17.5V11.6667ZM12.5 12.5V16.6667H16.6667V12.5H12.5Z" fill="#B9BCEF"/>
</svg>
