<svg width="18" height="18" viewBox="0 0 18 18" fill="none" xmlns="http://www.w3.org/2000/svg">
<path fill-rule="evenodd" clip-rule="evenodd" d="M3.58147 11.4825C1.47898 7.31998 4.6889 1.98762 9.44181 2.00002C11.3776 2.00506 13.0044 2.67129 14.1442 3.788C15.2809 4.90168 15.9947 6.52311 16 8.55817C16.0123 13.3078 10.6764 16.5193 6.51752 14.4185C6.27952 14.2983 6.00337 14.2781 5.75041 14.3624L2.58112 15.4189L3.63755 12.2496C3.72187 11.9966 3.70168 11.7205 3.58147 11.4825ZM9.44702 2.3663e-05C3.32848 -0.015929 -0.77486 6.58678 1.61339 11.9975L0.0512991 16.6838C-0.0684791 17.0431 0.0250434 17.4393 0.292876 17.7071C0.560708 17.9749 0.956875 18.0685 1.31621 17.9487L6.0025 16.3866C11.4099 18.7729 18.0159 14.6683 18 8.55296C17.9934 6.03245 17.0977 3.88176 15.5439 2.35938C13.9931 0.840043 11.848 0.00628364 9.44702 2.3663e-05Z" fill="#B9BCEF"/>
</svg>
