<svg width="16" height="16" viewBox="0 0 16 16" fill="none" xmlns="http://www.w3.org/2000/svg">
<path fill-rule="evenodd" clip-rule="evenodd" d="M3.33325 2.66668C3.15644 2.66668 2.98687 2.73691 2.86185 2.86194C2.73682 2.98696 2.66659 3.15653 2.66659 3.33334V12.6667C2.66659 12.8435 2.73682 13.0131 2.86185 13.1381C2.98687 13.2631 3.15644 13.3333 3.33325 13.3333H5.99992C6.36811 13.3333 6.66659 13.6318 6.66659 14C6.66659 14.3682 6.36811 14.6667 5.99992 14.6667H3.33325C2.80282 14.6667 2.29411 14.456 1.91904 14.0809C1.54397 13.7058 1.33325 13.1971 1.33325 12.6667V3.33334C1.33325 2.80291 1.54397 2.2942 1.91904 1.91913C2.29411 1.54406 2.80282 1.33334 3.33325 1.33334H5.99992C6.36811 1.33334 6.66659 1.63182 6.66659 2.00001C6.66659 2.3682 6.36811 2.66668 5.99992 2.66668H3.33325ZM10.1952 4.19527C10.4555 3.93492 10.8776 3.93492 11.138 4.19527L14.4713 7.52861C14.7317 7.78896 14.7317 8.21107 14.4713 8.47141L11.138 11.8047C10.8776 12.0651 10.4555 12.0651 10.1952 11.8047C9.93483 11.5444 9.93483 11.1223 10.1952 10.8619L12.3904 8.66668H5.99992C5.63173 8.66668 5.33325 8.3682 5.33325 8.00001C5.33325 7.63182 5.63173 7.33334 5.99992 7.33334H12.3904L10.1952 5.13808C9.93483 4.87773 9.93483 4.45562 10.1952 4.19527Z" fill="#79798B"/>
</svg>
