<svg width="24" height="24" viewBox="0 0 24 24" fill="none" xmlns="http://www.w3.org/2000/svg">
<g clip-path="url(#clip0_28612_385353)">
<path fill-rule="evenodd" clip-rule="evenodd" d="M8.13103 5.00801C9.64897 4.16887 11.3985 3.84579 13.116 4.08744C14.8335 4.32908 16.4261 5.12238 17.6535 6.34777C17.6607 6.3549 17.6679 6.36192 17.6753 6.36883L20.4754 9H17C16.4477 9 16 9.44772 16 10C16 10.5523 16.4477 11 17 11H22.9886C23.1018 11.0013 23.2152 10.9834 23.3233 10.9466C23.4731 10.8956 23.6129 10.8082 23.7288 10.6848C23.847 10.5591 23.9263 10.4108 23.9673 10.2548C23.9768 10.2183 23.9843 10.1814 23.9897 10.1443C23.9971 10.0931 24.0005 10.0415 24 9.98995V4C24 3.44772 23.5523 3 23 3C22.4477 3 22 3.44772 22 4V7.68816L19.0556 4.92141C17.5227 3.39587 15.5364 2.40828 13.3947 2.10695C11.2478 1.80488 9.06085 2.20874 7.16341 3.25766C5.26597 4.30658 3.76082 5.94375 2.87476 7.92248C1.98868 9.90124 1.76968 12.1143 2.25076 14.2284C2.73184 16.3423 3.88691 18.2428 5.54197 19.6432C7.19702 21.0437 9.26239 21.8684 11.4269 21.9929C13.5913 22.1175 15.7377 21.5352 17.5425 20.3339C19.3473 19.1326 20.7128 17.3772 21.4332 15.3324C21.6167 14.8115 21.3432 14.2404 20.8223 14.0569C20.3014 13.8734 19.7304 14.1469 19.5469 14.6678C18.9705 16.3037 17.8782 17.7079 16.4343 18.669C14.9905 19.6301 13.2734 20.0959 11.5418 19.9962C9.81021 19.8966 8.15792 19.2368 6.83387 18.1165C5.50983 16.9961 4.58577 15.4758 4.2009 13.7846C3.81604 12.0934 3.99124 10.3229 4.7001 8.73986C5.40896 7.15688 6.61307 5.84714 8.13103 5.00801Z" fill="black"/>
</g>
<defs>
<clipPath id="clip0_28612_385353">
<rect width="24" height="24" fill="white"/>
</clipPath>
</defs>
</svg>
