<svg width="20" height="20" viewBox="0 0 20 20" fill="none" xmlns="http://www.w3.org/2000/svg">
<path fill-rule="evenodd" clip-rule="evenodd" d="M10 1.66666C9.65584 1.66666 9.31584 1.68749 8.98167 1.72832L8.95 1.73166C8.82834 1.74499 8.57167 1.77332 8.3375 1.91082C8.14066 2.02795 7.97913 2.1961 7.87 2.39749C7.74084 2.63749 7.72167 2.90582 7.7125 3.03416C7.7125 3.04749 7.71084 3.05916 7.71 3.06916L7.63334 3.98916C7.56282 4.01708 7.49281 4.04625 7.42334 4.07666L6.71834 3.47999C6.70968 3.47254 6.70107 3.46504 6.6925 3.45749C6.595 3.37416 6.3925 3.19666 6.13084 3.11832C5.91115 3.0531 5.67792 3.04849 5.45584 3.10499C5.19417 3.17332 4.9925 3.33499 4.8975 3.41082L4.8725 3.43082C4.60834 3.63666 4.3575 3.85832 4.12084 4.09416L4.11917 4.09582L4.09584 4.11916L4.09417 4.12082C3.85834 4.35749 3.63667 4.60832 3.43084 4.87166L3.41084 4.89666C3.335 4.99249 3.17334 5.19416 3.105 5.45666C3.04834 5.67499 3.05334 5.91499 3.11834 6.13082C3.19667 6.39166 3.37334 6.59499 3.4575 6.69249L3.48 6.71832L4.07667 7.42332C4.04626 7.4928 4.01709 7.56281 3.98917 7.63332L3.06917 7.70999C3.05751 7.71089 3.04584 7.71173 3.03417 7.71249C2.90584 7.72166 2.6375 7.74082 2.3975 7.86999C2.19611 7.97912 2.02796 8.14065 1.91084 8.33749C1.77334 8.57166 1.745 8.82916 1.73167 8.94999L1.72834 8.98166C1.64581 9.65804 1.64581 10.3419 1.72834 11.0183L1.73167 11.05C1.745 11.1717 1.77334 11.4283 1.91084 11.6625C2.025 11.8567 2.19917 12.0233 2.3975 12.13C2.6375 12.2592 2.90584 12.2783 3.03417 12.2875C3.0475 12.2875 3.05917 12.2892 3.06917 12.29L3.98917 12.3667C4.0175 12.4375 4.04584 12.5075 4.07667 12.5767L3.48 13.2817L3.4575 13.3075C3.37417 13.405 3.19667 13.6083 3.11834 13.8692C3.05311 14.0888 3.04851 14.3221 3.105 14.5442C3.17334 14.8058 3.335 15.0075 3.41084 15.1025L3.43084 15.1275C3.635 15.39 3.855 15.6383 4.08917 15.8733L4.09084 15.8758L4.12417 15.9092L4.12667 15.9117C4.36167 16.145 4.61 16.365 4.87167 16.5692L4.89667 16.5892C4.9925 16.665 5.19417 16.8267 5.45667 16.895C5.675 16.9517 5.915 16.9467 6.13084 16.8817C6.39167 16.8033 6.595 16.6267 6.6925 16.5425L6.71834 16.52L7.42334 15.9233C7.4925 15.9542 7.5625 15.9833 7.63334 16.0108L7.71 16.9308L7.7125 16.9658C7.72167 17.0933 7.74084 17.3625 7.87 17.6025C7.97667 17.8008 8.14334 17.975 8.3375 18.0892C8.57167 18.2267 8.82917 18.255 8.95 18.2683L8.98167 18.2717C9.65805 18.3542 10.342 18.3542 11.0183 18.2717L11.05 18.2683C11.1717 18.255 11.4283 18.2267 11.6625 18.0892C11.8567 17.975 12.0233 17.8008 12.13 17.6025C12.2592 17.3625 12.2783 17.0942 12.2875 16.9658C12.2875 16.9525 12.2892 16.9408 12.29 16.9308L12.3667 16.0108C12.4375 15.9825 12.5075 15.9542 12.5767 15.9233L13.2817 16.52L13.2983 16.5342L13.3075 16.5425C13.405 16.6258 13.6075 16.8033 13.8692 16.8817C14.085 16.9467 14.325 16.9517 14.5442 16.895C14.8058 16.8267 15.0075 16.665 15.1025 16.5892L15.1275 16.5692C15.6649 16.1491 16.1491 15.6649 16.5692 15.1275L16.5892 15.1025C16.665 15.0075 16.8267 14.8058 16.895 14.5442C16.9517 14.3258 16.9467 14.085 16.8817 13.8692C16.8033 13.6083 16.6267 13.405 16.5425 13.3075C16.5389 13.3033 16.5353 13.2992 16.5317 13.295L16.52 13.2817L15.9233 12.5767C15.9542 12.5075 15.9833 12.4375 16.0108 12.3667L16.9308 12.29L16.9658 12.2875C17.0933 12.2783 17.3625 12.2592 17.6025 12.13C17.8008 12.0233 17.975 11.8567 18.0892 11.6625C18.2267 11.4283 18.255 11.1708 18.2683 11.05L18.2717 11.0183C18.3542 10.3419 18.3542 9.65804 18.2717 8.98166L18.2683 8.94999C18.255 8.82832 18.2267 8.57166 18.0892 8.33749C17.972 8.14065 17.8039 7.97912 17.6025 7.86999C17.3625 7.74082 17.0942 7.72166 16.9658 7.71249C16.9542 7.71172 16.9425 7.71089 16.9308 7.70999L16.0108 7.63332C15.9829 7.56281 15.9538 7.4928 15.9233 7.42332L16.52 6.71832L16.5425 6.69249C16.6258 6.59499 16.8033 6.39249 16.8817 6.13082C16.9467 5.91499 16.9517 5.67499 16.895 5.45666C16.8267 5.19416 16.665 4.99249 16.5892 4.89666L16.5692 4.87166C16.1491 4.33447 15.6649 3.85061 15.1275 3.43082L15.1025 3.41082C15.0075 3.33499 14.8058 3.17332 14.5442 3.10499C14.3221 3.04845 14.0888 3.05306 13.8692 3.11832C13.6083 3.19666 13.405 3.37332 13.3075 3.45749L13.2817 3.47999L12.5767 4.07666C12.5072 4.04625 12.4372 4.01708 12.3667 3.98916L12.29 3.06916L12.2875 3.03416C12.2783 2.90582 12.2592 2.63749 12.13 2.39749C12.0209 2.1961 11.8593 2.02795 11.6625 1.91082C11.4283 1.77332 11.1708 1.74499 11.05 1.73166L11.0183 1.72832C10.6805 1.68717 10.3404 1.66658 10 1.66666ZM9.2875 4.21332L9.35834 3.36332C9.78515 3.32262 10.2149 3.32262 10.6417 3.36332L10.7125 4.21332L10.715 4.24582C10.7233 4.35832 10.74 4.58916 10.8317 4.79332C10.9572 5.07914 11.1874 5.30606 11.475 5.42749C11.5503 5.46001 11.6264 5.49058 11.7033 5.51916L11.7158 5.52499C11.795 5.55499 11.8733 5.58749 11.95 5.62166L11.9633 5.62749C12.035 5.65999 12.1167 5.69582 12.1883 5.72332C12.4777 5.84146 12.8013 5.84414 13.0925 5.73082C13.3025 5.65082 13.4775 5.49916 13.5633 5.42582L13.5883 5.40416L14.2383 4.85416C14.5692 5.12666 14.8733 5.43082 15.1467 5.76249L14.5958 6.41249L14.5742 6.43749C14.5008 6.52249 14.3492 6.69749 14.2692 6.90666C14.156 7.19793 14.1587 7.52147 14.2767 7.81082C14.3042 7.88332 14.34 7.96499 14.3725 8.03666L14.3783 8.04999C14.4125 8.12666 14.445 8.20499 14.475 8.28332L14.48 8.29666C14.5092 8.37166 14.5408 8.45416 14.5717 8.52499C14.6929 8.8129 14.9199 9.04342 15.2058 9.16916C15.4108 9.25999 15.6417 9.27666 15.7542 9.28499L15.7867 9.28749L16.6367 9.35832C16.6773 9.78514 16.6773 10.2148 16.6367 10.6417L15.7867 10.7125L15.7542 10.715C15.6417 10.7233 15.4108 10.74 15.2067 10.8317C14.9208 10.9572 14.6939 11.1874 14.5725 11.475C14.54 11.5503 14.5094 11.6264 14.4808 11.7033L14.4758 11.7158C14.4454 11.7947 14.4129 11.8728 14.3783 11.95L14.3725 11.9633C14.3386 12.0375 14.3067 12.1125 14.2767 12.1883C14.1585 12.4776 14.1559 12.8013 14.2692 13.0925C14.3492 13.3025 14.5008 13.4775 14.5742 13.5633L14.5958 13.5875L15.1458 14.2375C14.8731 14.5686 14.5692 14.8728 14.2383 15.1458L13.5875 14.5958L13.5625 14.5742C13.4775 14.5008 13.3025 14.3492 13.0933 14.2692C12.8021 14.1558 12.4785 14.1584 12.1892 14.2767C12.1131 14.3066 12.0378 14.3386 11.9633 14.3725L11.95 14.3783C11.8733 14.4125 11.795 14.445 11.7167 14.475L11.7033 14.4808C11.6265 14.5094 11.5503 14.54 11.475 14.5725C11.1871 14.6937 10.9566 14.9207 10.8308 15.2067C10.74 15.4108 10.7233 15.6417 10.715 15.7542L10.7125 15.7867L10.6417 16.6367C10.2149 16.6773 9.78515 16.6773 9.35834 16.6367L9.2875 15.7867L9.285 15.7542C9.27667 15.6417 9.26 15.4108 9.16834 15.2067C9.04279 14.9208 8.8126 14.6939 8.525 14.5725C8.44969 14.54 8.37355 14.5094 8.29667 14.4808L8.28417 14.4758C8.20526 14.4454 8.12718 14.4129 8.05 14.3783L8.03667 14.3725C7.965 14.3408 7.88334 14.3042 7.81167 14.2767C7.52232 14.1587 7.19877 14.156 6.9075 14.2692C6.6975 14.3492 6.5225 14.5008 6.43667 14.5742L6.4125 14.5958L5.7625 15.1458C5.60258 15.0144 5.4488 14.8756 5.30167 14.73V14.7292L5.27084 14.6992L5.27 14.6983C5.12408 14.5515 4.98504 14.398 4.85334 14.2383L5.40417 13.5883L5.42584 13.5633C5.49917 13.4775 5.65084 13.3025 5.73084 13.0933C5.84415 12.8021 5.84147 12.4785 5.72334 12.1892C5.69334 12.1131 5.66138 12.0378 5.6275 11.9633L5.62167 11.95C5.5874 11.8731 5.55516 11.7953 5.525 11.7167L5.51917 11.7033C5.49084 11.6283 5.45917 11.5458 5.4275 11.475C5.30625 11.1871 5.07931 10.9566 4.79334 10.8308C4.58917 10.74 4.35834 10.7233 4.24584 10.715L4.21334 10.7125L3.36334 10.6417C3.32263 10.2148 3.32263 9.78513 3.36334 9.35832L4.21334 9.28749L4.24584 9.28499C4.35834 9.27666 4.58917 9.25999 4.79334 9.16832C5.07916 9.04278 5.30608 8.81258 5.4275 8.52499C5.45917 8.45416 5.49084 8.37082 5.51917 8.29666L5.525 8.28416C5.55514 8.20526 5.58737 8.12717 5.62167 8.04999L5.6275 8.03666C5.66136 7.96249 5.69332 7.88746 5.72334 7.81166C5.84147 7.52234 5.84415 7.19873 5.73084 6.90749C5.65084 6.69749 5.49917 6.52249 5.42584 6.43666L5.40417 6.41249L4.85417 5.76166C4.9875 5.59999 5.1275 5.44499 5.27584 5.29666L5.29667 5.27582V5.27499C5.445 5.12749 5.6 4.98666 5.76167 4.85332L6.4125 5.40416L6.4375 5.42582C6.5225 5.49916 6.6975 5.65082 6.90667 5.73082C7.19791 5.84414 7.52152 5.84146 7.81084 5.72332C7.88334 5.69582 7.965 5.65999 8.03667 5.62749L8.05 5.62166C8.12667 5.58749 8.205 5.55499 8.28334 5.52499L8.29667 5.51916C8.37167 5.49082 8.45417 5.45916 8.525 5.42749C8.81291 5.30624 9.04343 5.0793 9.16917 4.79332C9.26 4.58916 9.27667 4.35832 9.285 4.24582L9.2875 4.21332ZM10 13.3333C10.8841 13.3333 11.7319 12.9821 12.357 12.357C12.9821 11.7319 13.3333 10.884 13.3333 9.99999C13.3333 9.11594 12.9821 8.26809 12.357 7.64297C11.7319 7.01785 10.8841 6.66666 10 6.66666C9.11595 6.66666 8.2681 7.01785 7.64298 7.64297C7.01786 8.26809 6.66667 9.11594 6.66667 9.99999C6.66667 10.884 7.01786 11.7319 7.64298 12.357C8.2681 12.9821 9.11595 13.3333 10 13.3333ZM11.6667 9.99999C11.6667 10.442 11.4911 10.8659 11.1785 11.1785C10.866 11.4911 10.442 11.6667 10 11.6667C9.55798 11.6667 9.13405 11.4911 8.82149 11.1785C8.50893 10.8659 8.33334 10.442 8.33334 9.99999C8.33334 9.55796 8.50893 9.13404 8.82149 8.82148C9.13405 8.50892 9.55798 8.33332 10 8.33332C10.442 8.33332 10.866 8.50892 11.1785 8.82148C11.4911 9.13404 11.6667 9.55796 11.6667 9.99999Z" fill="#79798B"/>
</svg>
